<?xml version="1.0" encoding="UTF-8" standalone="no"?>
<!DOCTYPE svg PUBLIC "-//W3C//DTD SVG 1.1//EN"
 "http://www.w3.org/Graphics/SVG/1.1/DTD/svg11.dtd">
<!-- Generated by graphviz version 2.43.0 (0)
 -->
<!-- Title: G Pages: 1 -->
<svg width="561pt" height="620pt"
 viewBox="0.00 0.00 561.00 620.00" xmlns="http://www.w3.org/2000/svg" xmlns:xlink="http://www.w3.org/1999/xlink">
<g id="graph0" class="graph" transform="scale(1 1) rotate(0) translate(4 616)">
<title>G</title>
<polygon fill="white" stroke="transparent" points="-4,4 -4,-616 557,-616 557,4 -4,4"/>
<g id="clust1" class="cluster">
<title>cluster_root</title>
<g id="a_clust1"><a xlink:title="eventq_index=0&#10;full_system=false&#10;sim_quantum=0&#10;time_sync_enable=false&#10;time_sync_period=100000000000&#10;time_sync_spin_threshold=100000000">
<path fill="#bab6ae" stroke="#000000" d="M20,-8C20,-8 533,-8 533,-8 539,-8 545,-14 545,-20 545,-20 545,-592 545,-592 545,-598 539,-604 533,-604 533,-604 20,-604 20,-604 14,-604 8,-598 8,-592 8,-592 8,-20 8,-20 8,-14 14,-8 20,-8"/>
<text text-anchor="middle" x="276.5" y="-588.8" font-family="Arial" font-size="14.00" fill="#000000">root </text>
<text text-anchor="middle" x="276.5" y="-573.8" font-family="Arial" font-size="14.00" fill="#000000">: Root</text>
</a>
</g>
</g>
<g id="clust2" class="cluster">
<title>cluster_board</title>
<g id="a_clust2"><a xlink:title="auto_unlink_shared_backstore=false&#10;cache_line_size=64&#10;eventq_index=0&#10;exit_on_work_items=false&#10;init_param=0&#10;m5ops_base=0&#10;mem_mode=timing&#10;mem_ranges=0:17179869184&#10;memories=board.memory.mem_ctrl.dram&#10;mmap_using_noreserve=false&#10;multi_thread=false&#10;&#10;um_work_ids=16&#10;&#13;eadfile=&#10;&#13;edirect_paths=&#10;shadow_rom_ranges=&#10;shared_backstore=&#10;symbolfile=&#10;thermal_components=&#10;thermal_model=Null&#10;work_begin_ckpt_count=0&#10;work_begin_cpu_id_exit=&#45;1&#10;work_begin_exit_count=0&#10;work_cpus_ckpt_count=0&#10;work_end_ckpt_count=0&#10;work_end_exit_count=0&#10;work_item_id=&#45;1&#10;workload=board.workload">
<path fill="#e4e7eb" stroke="#000000" d="M28,-16C28,-16 525,-16 525,-16 531,-16 537,-22 537,-28 537,-28 537,-546 537,-546 537,-552 531,-558 525,-558 525,-558 28,-558 28,-558 22,-558 16,-552 16,-546 16,-546 16,-28 16,-28 16,-22 22,-16 28,-16"/>
<text text-anchor="middle" x="276.5" y="-542.8" font-family="Arial" font-size="14.00" fill="#000000">board </text>
<text text-anchor="middle" x="276.5" y="-527.8" font-family="Arial" font-size="14.00" fill="#000000">: TestBoard</text>
</a>
</g>
</g>
<g id="clust7" class="cluster">
<title>cluster_board_processor</title>
<g id="a_clust7"><a xlink:title="eventq_index=0&#10;thermal_domain=Null">
<path fill="#bab6ae" stroke="#000000" d="M284,-314C284,-314 517,-314 517,-314 523,-314 529,-320 529,-326 529,-326 529,-500 529,-500 529,-506 523,-512 517,-512 517,-512 284,-512 284,-512 278,-512 272,-506 272,-500 272,-500 272,-326 272,-326 272,-320 278,-314 284,-314"/>
<text text-anchor="middle" x="400.5" y="-496.8" font-family="Arial" font-size="14.00" fill="#000000">processor </text>
<text text-anchor="middle" x="400.5" y="-481.8" font-family="Arial" font-size="14.00" fill="#000000">: RandomGenerator</text>
</a>
</g>
</g>
<g id="clust8" class="cluster">
<title>cluster_board_processor_cores</title>
<g id="a_clust8"><a xlink:title="eventq_index=0&#10;thermal_domain=Null">
<path fill="#9f9c95" stroke="#000000" d="M292,-322C292,-322 509,-322 509,-322 515,-322 521,-328 521,-334 521,-334 521,-454 521,-454 521,-460 515,-466 509,-466 509,-466 292,-466 292,-466 286,-466 280,-460 280,-454 280,-454 280,-334 280,-334 280,-328 286,-322 292,-322"/>
<text text-anchor="middle" x="400.5" y="-450.8" font-family="Arial" font-size="14.00" fill="#000000">cores </text>
<text text-anchor="middle" x="400.5" y="-435.8" font-family="Arial" font-size="14.00" fill="#000000">: RandomGeneratorCore</text>
</a>
</g>
</g>
<g id="clust9" class="cluster">
<title>cluster_board_processor_cores_port_end</title>
<g id="a_clust9"><a xlink:title="eventq_index=0">
<path fill="#84827c" stroke="#000000" d="M412,-330C412,-330 501,-330 501,-330 507,-330 513,-336 513,-342 513,-342 513,-408 513,-408 513,-414 507,-420 501,-420 501,-420 412,-420 412,-420 406,-420 400,-414 400,-408 400,-408 400,-342 400,-342 400,-336 406,-330 412,-330"/>
<text text-anchor="middle" x="456.5" y="-404.8" font-family="Arial" font-size="14.00" fill="#000000">port_end </text>
<text text-anchor="middle" x="456.5" y="-389.8" font-family="Arial" font-size="14.00" fill="#000000">: PortTerminator</text>
</a>
</g>
</g>
<g id="clust10" class="cluster">
<title>cluster_board_processor_cores_generator</title>
<g id="a_clust10"><a xlink:title="clk_domain=board.clk_domain&#10;cpu_id=&#45;1&#10;elastic_req=false&#10;eventq_index=0&#10;max_outstanding_reqs=0&#10;&#10;umThreads=1&#10;power_model=&#10;power_state=board.processor.cores.generator.power_state&#10;progress_check=1000000000&#10;sids=&#10;socket_id=0&#10;ssids=&#10;stream_gen=none&#10;system=board">
<path fill="#84827c" stroke="#000000" d="M300,-330C300,-330 380,-330 380,-330 386,-330 392,-336 392,-342 392,-342 392,-408 392,-408 392,-414 386,-420 380,-420 380,-420 300,-420 300,-420 294,-420 288,-414 288,-408 288,-408 288,-342 288,-342 288,-336 294,-330 300,-330"/>
<text text-anchor="middle" x="340" y="-404.8" font-family="Arial" font-size="14.00" fill="#000000">generator </text>
<text text-anchor="middle" x="340" y="-389.8" font-family="Arial" font-size="14.00" fill="#000000">: PyTrafficGen</text>
</a>
</g>
</g>
<g id="clust12" class="cluster">
<title>cluster_board_memory</title>
<g id="a_clust12"><a xlink:title="eventq_index=0&#10;thermal_domain=Null">
<path fill="#bab6ae" stroke="#000000" d="M136,-322C136,-322 252,-322 252,-322 258,-322 264,-328 264,-334 264,-334 264,-454 264,-454 264,-460 258,-466 252,-466 252,-466 136,-466 136,-466 130,-466 124,-460 124,-454 124,-454 124,-334 124,-334 124,-328 130,-322 136,-322"/>
<text text-anchor="middle" x="194" y="-450.8" font-family="Arial" font-size="14.00" fill="#000000">memory </text>
<text text-anchor="middle" x="194" y="-435.8" font-family="Arial" font-size="14.00" fill="#000000">: ChanneledMemory</text>
</a>
</g>
</g>
<g id="clust13" class="cluster">
<title>cluster_board_memory_mem_ctrl</title>
<g id="a_clust13"><a xlink:title="clk_domain=board.clk_domain&#10;command_window=10000&#10;disable_sanity_check=false&#10;dram=board.memory.mem_ctrl.dram&#10;eventq_index=0&#10;mem_sched_policy=frfcfs&#10;min_reads_per_switch=16&#10;min_writes_per_switch=16&#10;power_model=&#10;power_state=board.memory.mem_ctrl.power_state&#10;qos_policy=Null&#10;qos_priorities=1&#10;qos_priority_escalation=false&#10;qos_q_policy=fifo&#10;qos_requestors= &#160;&#160;&#160;&#160;&#160;&#160;&#160;&#160;&#160;&#160;&#160;&#160;&#160;&#160;&#10;qos_syncro_scheduler=false&#10;qos_turnaround_policy=Null&#10;static_backend_latency=10000&#10;static_frontend_latency=10000&#10;system=board&#10;write_high_thresh_perc=85&#10;write_low_thresh_perc=50">
<path fill="#9f9c95" stroke="#000000" d="M191,-330C191,-330 244,-330 244,-330 250,-330 256,-336 256,-342 256,-342 256,-408 256,-408 256,-414 250,-420 244,-420 244,-420 191,-420 191,-420 185,-420 179,-414 179,-408 179,-408 179,-342 179,-342 179,-336 185,-330 191,-330"/>
<text text-anchor="middle" x="217.5" y="-404.8" font-family="Arial" font-size="14.00" fill="#000000">mem_ctrl </text>
<text text-anchor="middle" x="217.5" y="-389.8" font-family="Arial" font-size="14.00" fill="#000000">: MemCtrl</text>
</a>
</g>
</g>
<g id="clust17" class="cluster">
<title>cluster_board_cache_hierarchy</title>
<g id="a_clust17"><a xlink:title="eventq_index=0&#10;thermal_domain=Null">
<path fill="#bab6ae" stroke="#000000" d="M131,-24C131,-24 459,-24 459,-24 465,-24 471,-30 471,-36 471,-36 471,-294 471,-294 471,-300 465,-306 459,-306 459,-306 131,-306 131,-306 125,-306 119,-300 119,-294 119,-294 119,-36 119,-36 119,-30 125,-24 131,-24"/>
<text text-anchor="middle" x="295" y="-290.8" font-family="Arial" font-size="14.00" fill="#000000">cache_hierarchy </text>
<text text-anchor="middle" x="295" y="-275.8" font-family="Arial" font-size="14.00" fill="#000000">: NoCache</text>
</a>
</g>
</g>
<g id="clust18" class="cluster">
<title>cluster_board_cache_hierarchy_membus</title>
<g id="a_clust18"><a xlink:title="clk_domain=board.clk_domain&#10;eventq_index=0&#10;forward_latency=4&#10;frontend_latency=3&#10;header_latency=1&#10;max_outstanding_snoops=512&#10;max_routing_table_size=2048&#10;point_of_coherency=true&#10;point_of_unification=true&#10;power_model=&#10;power_state=board.cache_hierarchy.membus.power_state&#10;&#13;esponse_latency=2&#10;snoop_filter=board.cache_hierarchy.membus.snoop_filter&#10;snoop_response_latency=4&#10;system=board&#10;use_default_range=false&#10;width=64">
<path fill="#6f798c" stroke="#000000" d="M139,-32C139,-32 451,-32 451,-32 457,-32 463,-38 463,-44 463,-44 463,-248 463,-248 463,-254 457,-260 451,-260 451,-260 139,-260 139,-260 133,-260 127,-254 127,-248 127,-248 127,-44 127,-44 127,-38 133,-32 139,-32"/>
<text text-anchor="middle" x="295" y="-244.8" font-family="Arial" font-size="14.00" fill="#000000">membus </text>
<text text-anchor="middle" x="295" y="-229.8" font-family="Arial" font-size="14.00" fill="#000000">: SystemXBar</text>
</a>
</g>
</g>
<g id="clust21" class="cluster">
<title>cluster_board_cache_hierarchy_membus_badaddr_responder</title>
<g id="a_clust21"><a xlink:title="clk_domain=board.clk_domain&#10;eventq_index=0&#10;fake_mem=false&#10;pio_addr=0&#10;pio_latency=100000&#10;pio_size=8&#10;power_model=&#10;power_state=board.cache_hierarchy.membus.badaddr_responder.power_state&#10;&#13;et_bad_addr=true&#10;&#13;et_data16=65535&#10;&#13;et_data32=4294967295&#10;&#13;et_data64=18446744073709551615&#10;&#13;et_data8=255&#10;system=board&#10;update_data=false&#10;warn_access=">
<path fill="#c7a793" stroke="#000000" d="M147,-40C147,-40 261,-40 261,-40 267,-40 273,-46 273,-52 273,-52 273,-118 273,-118 273,-124 267,-130 261,-130 261,-130 147,-130 147,-130 141,-130 135,-124 135,-118 135,-118 135,-52 135,-52 135,-46 141,-40 147,-40"/>
<text text-anchor="middle" x="204" y="-114.8" font-family="Arial" font-size="14.00" fill="#000000">badaddr_responder </text>
<text text-anchor="middle" x="204" y="-99.8" font-family="Arial" font-size="14.00" fill="#000000">: BadAddr</text>
</a>
</g>
</g>
<!-- board_system_port -->
<g id="node1" class="node">
<title>board_system_port</title>
<path fill="#b6b8bc" stroke="#000000" d="M103.5,-374C103.5,-374 36.5,-374 36.5,-374 30.5,-374 24.5,-368 24.5,-362 24.5,-362 24.5,-350 24.5,-350 24.5,-344 30.5,-338 36.5,-338 36.5,-338 103.5,-338 103.5,-338 109.5,-338 115.5,-344 115.5,-350 115.5,-350 115.5,-362 115.5,-362 115.5,-368 109.5,-374 103.5,-374"/>
<text text-anchor="middle" x="70" y="-352.3" font-family="Arial" font-size="14.00" fill="#000000">system_port</text>
</g>
<!-- board_cache_hierarchy_membus_cpu_side_ports -->
<g id="node5" class="node">
<title>board_cache_hierarchy_membus_cpu_side_ports</title>
<path fill="#586070" stroke="#000000" d="M443,-214C443,-214 359,-214 359,-214 353,-214 347,-208 347,-202 347,-202 347,-190 347,-190 347,-184 353,-178 359,-178 359,-178 443,-178 443,-178 449,-178 455,-184 455,-190 455,-190 455,-202 455,-202 455,-208 449,-214 443,-214"/>
<text text-anchor="middle" x="401" y="-192.3" font-family="Arial" font-size="14.00" fill="#000000">cpu_side_ports</text>
</g>
<!-- board_system_port&#45;&gt;board_cache_hierarchy_membus_cpu_side_ports -->
<g id="edge1" class="edge">
<title>board_system_port&#45;&gt;board_cache_hierarchy_membus_cpu_side_ports</title>
<path fill="none" stroke="black" d="M105.55,-337.8C125.48,-329.01 151.08,-319.12 175,-314 192.73,-310.21 322.52,-315.45 338,-306 367.81,-287.81 384.95,-249.86 393.63,-223.91"/>
<polygon fill="black" stroke="black" points="396.99,-224.87 396.64,-214.28 390.31,-222.78 396.99,-224.87"/>
</g>
<!-- board_processor_cores_port_end_req_ports -->
<g id="node2" class="node">
<title>board_processor_cores_port_end_req_ports</title>
<path fill="#6a6863" stroke="#000000" d="M470,-374C470,-374 420,-374 420,-374 414,-374 408,-368 408,-362 408,-362 408,-350 408,-350 408,-344 414,-338 420,-338 420,-338 470,-338 470,-338 476,-338 482,-344 482,-350 482,-350 482,-362 482,-362 482,-368 476,-374 470,-374"/>
<text text-anchor="middle" x="445" y="-352.3" font-family="Arial" font-size="14.00" fill="#000000">req_ports</text>
</g>
<!-- board_processor_cores_port_end_req_ports&#45;&gt;board_cache_hierarchy_membus_cpu_side_ports -->
<g id="edge2" class="edge">
<title>board_processor_cores_port_end_req_ports&#45;&gt;board_cache_hierarchy_membus_cpu_side_ports</title>
<path fill="none" stroke="black" d="M431.4,-337.79C418.17,-310.48 402.71,-256.99 398.11,-224.38"/>
<polygon fill="black" stroke="black" points="401.56,-223.74 396.99,-214.19 394.6,-224.51 401.56,-223.74"/>
</g>
<!-- board_processor_cores_port_end_req_ports&#45;&gt;board_cache_hierarchy_membus_cpu_side_ports -->
<g id="edge3" class="edge">
<title>board_processor_cores_port_end_req_ports&#45;&gt;board_cache_hierarchy_membus_cpu_side_ports</title>
<path fill="none" stroke="black" d="M440.21,-337.79C432.57,-310.37 417.58,-256.53 408.51,-223.96"/>
<polygon fill="black" stroke="black" points="411.84,-222.88 405.79,-214.19 405.1,-224.76 411.84,-222.88"/>
</g>
<!-- board_processor_cores_port_end_req_ports&#45;&gt;board_cache_hierarchy_membus_cpu_side_ports -->
<g id="edge4" class="edge">
<title>board_processor_cores_port_end_req_ports&#45;&gt;board_cache_hierarchy_membus_cpu_side_ports</title>
<path fill="none" stroke="black" d="M449.01,-337.79C447.02,-310.25 432.46,-256.06 418.79,-223.53"/>
<polygon fill="black" stroke="black" points="421.88,-221.87 414.59,-214.19 415.49,-224.74 421.88,-221.87"/>
</g>
<!-- board_processor_cores_generator_port -->
<g id="node3" class="node">
<title>board_processor_cores_generator_port</title>
<path fill="#6a6863" stroke="#000000" d="M372,-374C372,-374 342,-374 342,-374 336,-374 330,-368 330,-362 330,-362 330,-350 330,-350 330,-344 336,-338 342,-338 342,-338 372,-338 372,-338 378,-338 384,-344 384,-350 384,-350 384,-362 384,-362 384,-368 378,-374 372,-374"/>
<text text-anchor="middle" x="357" y="-352.3" font-family="Arial" font-size="14.00" fill="#000000">port</text>
</g>
<!-- board_processor_cores_generator_port&#45;&gt;board_cache_hierarchy_membus_cpu_side_ports -->
<g id="edge5" class="edge">
<title>board_processor_cores_generator_port&#45;&gt;board_cache_hierarchy_membus_cpu_side_ports</title>
<path fill="none" stroke="black" d="M361.79,-337.79C369.43,-310.37 384.42,-256.53 393.49,-223.96"/>
<polygon fill="black" stroke="black" points="396.9,-224.76 396.21,-214.19 390.16,-222.88 396.9,-224.76"/>
</g>
<!-- board_memory_mem_ctrl_port -->
<g id="node4" class="node">
<title>board_memory_mem_ctrl_port</title>
<path fill="#7f7c77" stroke="#000000" d="M236,-374C236,-374 206,-374 206,-374 200,-374 194,-368 194,-362 194,-362 194,-350 194,-350 194,-344 200,-338 206,-338 206,-338 236,-338 236,-338 242,-338 248,-344 248,-350 248,-350 248,-362 248,-362 248,-368 242,-374 236,-374"/>
<text text-anchor="middle" x="221" y="-352.3" font-family="Arial" font-size="14.00" fill="#000000">port</text>
</g>
<!-- board_cache_hierarchy_membus_mem_side_ports -->
<g id="node6" class="node">
<title>board_cache_hierarchy_membus_mem_side_ports</title>
<path fill="#586070" stroke="#000000" d="M317,-214C317,-214 223,-214 223,-214 217,-214 211,-208 211,-202 211,-202 211,-190 211,-190 211,-184 217,-178 223,-178 223,-178 317,-178 317,-178 323,-178 329,-184 329,-190 329,-190 329,-202 329,-202 329,-208 323,-214 317,-214"/>
<text text-anchor="middle" x="270" y="-192.3" font-family="Arial" font-size="14.00" fill="#000000">mem_side_ports</text>
</g>
<!-- board_memory_mem_ctrl_port&#45;&gt;board_cache_hierarchy_membus_mem_side_ports -->
<g id="edge6" class="edge">
<title>board_memory_mem_ctrl_port&#45;&gt;board_cache_hierarchy_membus_mem_side_ports</title>
<path fill="none" stroke="black" d="M229.37,-328.02C239.47,-295.44 256.17,-241.6 264.67,-214.19"/>
<polygon fill="black" stroke="black" points="225.96,-327.2 226.34,-337.79 232.64,-329.28 225.96,-327.2"/>
</g>
<!-- board_cache_hierarchy_membus_default -->
<g id="node7" class="node">
<title>board_cache_hierarchy_membus_default</title>
<path fill="#586070" stroke="#000000" d="M180.5,-214C180.5,-214 147.5,-214 147.5,-214 141.5,-214 135.5,-208 135.5,-202 135.5,-202 135.5,-190 135.5,-190 135.5,-184 141.5,-178 147.5,-178 147.5,-178 180.5,-178 180.5,-178 186.5,-178 192.5,-184 192.5,-190 192.5,-190 192.5,-202 192.5,-202 192.5,-208 186.5,-214 180.5,-214"/>
<text text-anchor="middle" x="164" y="-192.3" font-family="Arial" font-size="14.00" fill="#000000">default</text>
</g>
<!-- board_cache_hierarchy_membus_badaddr_responder_pio -->
<g id="node8" class="node">
<title>board_cache_hierarchy_membus_badaddr_responder_pio</title>
<path fill="#9f8575" stroke="#000000" d="M185,-84C185,-84 155,-84 155,-84 149,-84 143,-78 143,-72 143,-72 143,-60 143,-60 143,-54 149,-48 155,-48 155,-48 185,-48 185,-48 191,-48 197,-54 197,-60 197,-60 197,-72 197,-72 197,-78 191,-84 185,-84"/>
<text text-anchor="middle" x="170" y="-62.3" font-family="Arial" font-size="14.00" fill="#000000">pio</text>
</g>
<!-- board_cache_hierarchy_membus_default&#45;&gt;board_cache_hierarchy_membus_badaddr_responder_pio -->
<g id="edge7" class="edge">
<title>board_cache_hierarchy_membus_default&#45;&gt;board_cache_hierarchy_membus_badaddr_responder_pio</title>
<path fill="none" stroke="black" d="M164.81,-177.74C165.81,-156.36 167.53,-119.69 168.71,-94.44"/>
<polygon fill="black" stroke="black" points="172.21,-94.55 169.18,-84.4 165.22,-94.22 172.21,-94.55"/>
</g>
</g>
</svg>
