<?xml version="1.0" encoding="UTF-8" standalone="no"?>
<!DOCTYPE svg PUBLIC "-//W3C//DTD SVG 1.1//EN"
 "http://www.w3.org/Graphics/SVG/1.1/DTD/svg11.dtd">
<!-- Generated by graphviz version 2.43.0 (0)
 -->
<!-- Title: G Pages: 1 -->
<svg width="990pt" height="620pt"
 viewBox="0.00 0.00 990.00 620.00" xmlns="http://www.w3.org/2000/svg" xmlns:xlink="http://www.w3.org/1999/xlink">
<g id="graph0" class="graph" transform="scale(1 1) rotate(0) translate(4 616)">
<title>G</title>
<polygon fill="white" stroke="transparent" points="-4,4 -4,-616 986,-616 986,4 -4,4"/>
<g id="clust1" class="cluster">
<title>cluster_root</title>
<g id="a_clust1"><a xlink:title="eventq_index=0&#10;full_system=false&#10;sim_quantum=0&#10;time_sync_enable=false&#10;time_sync_period=100000000000&#10;time_sync_spin_threshold=100000000">
<path fill="#bab6ae" stroke="#000000" d="M20,-8C20,-8 962,-8 962,-8 968,-8 974,-14 974,-20 974,-20 974,-592 974,-592 974,-598 968,-604 962,-604 962,-604 20,-604 20,-604 14,-604 8,-598 8,-592 8,-592 8,-20 8,-20 8,-14 14,-8 20,-8"/>
<text text-anchor="middle" x="491" y="-588.8" font-family="Arial" font-size="14.00" fill="#000000">root </text>
<text text-anchor="middle" x="491" y="-573.8" font-family="Arial" font-size="14.00" fill="#000000">: Root</text>
</a>
</g>
</g>
<g id="clust2" class="cluster">
<title>cluster_board</title>
<g id="a_clust2"><a xlink:title="auto_unlink_shared_backstore=false&#10;cache_line_size=64&#10;eventq_index=0&#10;exit_on_work_items=false&#10;init_param=0&#10;m5ops_base=0&#10;mem_mode=timing&#10;mem_ranges=0:1073741824&#10;memories=board.memory.mem_ctrl0.dram board.memory.mem_ctrl1.dram&#10;mmap_using_noreserve=false&#10;multi_thread=false&#10;&#10;um_work_ids=16&#10;&#13;eadfile=&#10;&#13;edirect_paths=&#10;shadow_rom_ranges=&#10;shared_backstore=&#10;symbolfile=&#10;thermal_components=&#10;thermal_model=Null&#10;work_begin_ckpt_count=0&#10;work_begin_cpu_id_exit=&#45;1&#10;work_begin_exit_count=0&#10;work_cpus_ckpt_count=0&#10;work_end_ckpt_count=0&#10;work_end_exit_count=0&#10;work_item_id=&#45;1&#10;workload=board.workload">
<path fill="#e4e7eb" stroke="#000000" d="M28,-16C28,-16 954,-16 954,-16 960,-16 966,-22 966,-28 966,-28 966,-546 966,-546 966,-552 960,-558 954,-558 954,-558 28,-558 28,-558 22,-558 16,-552 16,-546 16,-546 16,-28 16,-28 16,-22 22,-16 28,-16"/>
<text text-anchor="middle" x="491" y="-542.8" font-family="Arial" font-size="14.00" fill="#000000">board </text>
<text text-anchor="middle" x="491" y="-527.8" font-family="Arial" font-size="14.00" fill="#000000">: TestBoard</text>
</a>
</g>
</g>
<g id="clust7" class="cluster">
<title>cluster_board_processor</title>
<g id="a_clust7"><a xlink:title="eventq_index=0&#10;thermal_domain=Null">
<path fill="#bab6ae" stroke="#000000" d="M438,-314C438,-314 671,-314 671,-314 677,-314 683,-320 683,-326 683,-326 683,-500 683,-500 683,-506 677,-512 671,-512 671,-512 438,-512 438,-512 432,-512 426,-506 426,-500 426,-500 426,-326 426,-326 426,-320 432,-314 438,-314"/>
<text text-anchor="middle" x="554.5" y="-496.8" font-family="Arial" font-size="14.00" fill="#000000">processor </text>
<text text-anchor="middle" x="554.5" y="-481.8" font-family="Arial" font-size="14.00" fill="#000000">: RandomGenerator</text>
</a>
</g>
</g>
<g id="clust8" class="cluster">
<title>cluster_board_processor_cores</title>
<g id="a_clust8"><a xlink:title="eventq_index=0&#10;thermal_domain=Null">
<path fill="#9f9c95" stroke="#000000" d="M446,-322C446,-322 663,-322 663,-322 669,-322 675,-328 675,-334 675,-334 675,-454 675,-454 675,-460 669,-466 663,-466 663,-466 446,-466 446,-466 440,-466 434,-460 434,-454 434,-454 434,-334 434,-334 434,-328 440,-322 446,-322"/>
<text text-anchor="middle" x="554.5" y="-450.8" font-family="Arial" font-size="14.00" fill="#000000">cores </text>
<text text-anchor="middle" x="554.5" y="-435.8" font-family="Arial" font-size="14.00" fill="#000000">: RandomGeneratorCore</text>
</a>
</g>
</g>
<g id="clust9" class="cluster">
<title>cluster_board_processor_cores_port_end</title>
<g id="a_clust9"><a xlink:title="eventq_index=0">
<path fill="#84827c" stroke="#000000" d="M454,-330C454,-330 543,-330 543,-330 549,-330 555,-336 555,-342 555,-342 555,-408 555,-408 555,-414 549,-420 543,-420 543,-420 454,-420 454,-420 448,-420 442,-414 442,-408 442,-408 442,-342 442,-342 442,-336 448,-330 454,-330"/>
<text text-anchor="middle" x="498.5" y="-404.8" font-family="Arial" font-size="14.00" fill="#000000">port_end </text>
<text text-anchor="middle" x="498.5" y="-389.8" font-family="Arial" font-size="14.00" fill="#000000">: PortTerminator</text>
</a>
</g>
</g>
<g id="clust10" class="cluster">
<title>cluster_board_processor_cores_generator</title>
<g id="a_clust10"><a xlink:title="clk_domain=board.clk_domain&#10;cpu_id=&#45;1&#10;elastic_req=false&#10;eventq_index=0&#10;max_outstanding_reqs=0&#10;&#10;umThreads=1&#10;power_model=&#10;power_state=board.processor.cores.generator.power_state&#10;progress_check=1000000000&#10;sids=&#10;socket_id=0&#10;ssids=&#10;stream_gen=none&#10;system=board">
<path fill="#84827c" stroke="#000000" d="M575,-330C575,-330 655,-330 655,-330 661,-330 667,-336 667,-342 667,-342 667,-408 667,-408 667,-414 661,-420 655,-420 655,-420 575,-420 575,-420 569,-420 563,-414 563,-408 563,-408 563,-342 563,-342 563,-336 569,-330 575,-330"/>
<text text-anchor="middle" x="615" y="-404.8" font-family="Arial" font-size="14.00" fill="#000000">generator </text>
<text text-anchor="middle" x="615" y="-389.8" font-family="Arial" font-size="14.00" fill="#000000">: PyTrafficGen</text>
</a>
</g>
</g>
<g id="clust12" class="cluster">
<title>cluster_board_memory</title>
<g id="a_clust12"><a xlink:title="eventq_index=0&#10;thermal_domain=Null">
<path fill="#bab6ae" stroke="#000000" d="M140,-322C140,-322 310,-322 310,-322 316,-322 322,-328 322,-334 322,-334 322,-454 322,-454 322,-460 316,-466 310,-466 310,-466 140,-466 140,-466 134,-466 128,-460 128,-454 128,-454 128,-334 128,-334 128,-328 134,-322 140,-322"/>
<text text-anchor="middle" x="225" y="-450.8" font-family="Arial" font-size="14.00" fill="#000000">memory </text>
<text text-anchor="middle" x="225" y="-435.8" font-family="Arial" font-size="14.00" fill="#000000">: ChanneledMemory</text>
</a>
</g>
</g>
<g id="clust13" class="cluster">
<title>cluster_board_memory_mem_ctrl0</title>
<g id="a_clust13"><a xlink:title="clk_domain=board.clk_domain&#10;command_window=10000&#10;disable_sanity_check=false&#10;dram=board.memory.mem_ctrl0.dram&#10;eventq_index=0&#10;mem_sched_policy=frfcfs&#10;min_reads_per_switch=16&#10;min_writes_per_switch=16&#10;power_model=&#10;power_state=board.memory.mem_ctrl0.power_state&#10;qos_policy=Null&#10;qos_priorities=1&#10;qos_priority_escalation=false&#10;qos_q_policy=fifo&#10;qos_requestors= &#160;&#160;&#160;&#160;&#160;&#160;&#160;&#160;&#160;&#160;&#160;&#160;&#160;&#160;&#10;qos_syncro_scheduler=false&#10;qos_turnaround_policy=Null&#10;static_backend_latency=10000&#10;static_frontend_latency=10000&#10;system=board&#10;write_high_thresh_perc=85&#10;write_low_thresh_perc=50">
<path fill="#9f9c95" stroke="#000000" d="M241,-330C241,-330 302,-330 302,-330 308,-330 314,-336 314,-342 314,-342 314,-408 314,-408 314,-414 308,-420 302,-420 302,-420 241,-420 241,-420 235,-420 229,-414 229,-408 229,-408 229,-342 229,-342 229,-336 235,-330 241,-330"/>
<text text-anchor="middle" x="271.5" y="-404.8" font-family="Arial" font-size="14.00" fill="#000000">mem_ctrl0 </text>
<text text-anchor="middle" x="271.5" y="-389.8" font-family="Arial" font-size="14.00" fill="#000000">: MemCtrl</text>
</a>
</g>
</g>
<g id="clust17" class="cluster">
<title>cluster_board_memory_mem_ctrl1</title>
<g id="a_clust17"><a xlink:title="clk_domain=board.clk_domain&#10;command_window=10000&#10;disable_sanity_check=false&#10;dram=board.memory.mem_ctrl1.dram&#10;eventq_index=0&#10;mem_sched_policy=frfcfs&#10;min_reads_per_switch=16&#10;min_writes_per_switch=16&#10;power_model=&#10;power_state=board.memory.mem_ctrl1.power_state&#10;qos_policy=Null&#10;qos_priorities=1&#10;qos_priority_escalation=false&#10;qos_q_policy=fifo&#10;qos_requestors= &#160;&#160;&#160;&#160;&#160;&#160;&#160;&#160;&#160;&#160;&#160;&#160;&#160;&#160;&#10;qos_syncro_scheduler=false&#10;qos_turnaround_policy=Null&#10;static_backend_latency=10000&#10;static_frontend_latency=10000&#10;system=board&#10;write_high_thresh_perc=85&#10;write_low_thresh_perc=50">
<path fill="#9f9c95" stroke="#000000" d="M148,-330C148,-330 209,-330 209,-330 215,-330 221,-336 221,-342 221,-342 221,-408 221,-408 221,-414 215,-420 209,-420 209,-420 148,-420 148,-420 142,-420 136,-414 136,-408 136,-408 136,-342 136,-342 136,-336 142,-330 148,-330"/>
<text text-anchor="middle" x="178.5" y="-404.8" font-family="Arial" font-size="14.00" fill="#000000">mem_ctrl1 </text>
<text text-anchor="middle" x="178.5" y="-389.8" font-family="Arial" font-size="14.00" fill="#000000">: MemCtrl</text>
</a>
</g>
</g>
<g id="clust21" class="cluster">
<title>cluster_board_cache_hierarchy</title>
<g id="a_clust21"><a xlink:title="eventq_index=0&#10;thermal_domain=Null">
<path fill="#bab6ae" stroke="#000000" d="M36,-24C36,-24 946,-24 946,-24 952,-24 958,-30 958,-36 958,-36 958,-294 958,-294 958,-300 952,-306 946,-306 946,-306 36,-306 36,-306 30,-306 24,-300 24,-294 24,-294 24,-36 24,-36 24,-30 30,-24 36,-24"/>
<text text-anchor="middle" x="491" y="-290.8" font-family="Arial" font-size="14.00" fill="#000000">cache_hierarchy </text>
<text text-anchor="middle" x="491" y="-275.8" font-family="Arial" font-size="14.00" fill="#000000">: PrivateL1PrivateL2CacheHierarchy</text>
</a>
</g>
</g>
<g id="clust22" class="cluster">
<title>cluster_board_cache_hierarchy_membus</title>
<g id="a_clust22"><a xlink:title="clk_domain=board.clk_domain&#10;eventq_index=0&#10;forward_latency=4&#10;frontend_latency=3&#10;header_latency=1&#10;max_outstanding_snoops=512&#10;max_routing_table_size=512&#10;point_of_coherency=true&#10;point_of_unification=true&#10;power_model=&#10;power_state=board.cache_hierarchy.membus.power_state&#10;&#13;esponse_latency=2&#10;snoop_filter=board.cache_hierarchy.membus.snoop_filter&#10;snoop_response_latency=4&#10;system=board&#10;use_default_range=false&#10;width=64">
<path fill="#6f798c" stroke="#000000" d="M44,-32C44,-32 356,-32 356,-32 362,-32 368,-38 368,-44 368,-44 368,-248 368,-248 368,-254 362,-260 356,-260 356,-260 44,-260 44,-260 38,-260 32,-254 32,-248 32,-248 32,-44 32,-44 32,-38 38,-32 44,-32"/>
<text text-anchor="middle" x="200" y="-244.8" font-family="Arial" font-size="14.00" fill="#000000">membus </text>
<text text-anchor="middle" x="200" y="-229.8" font-family="Arial" font-size="14.00" fill="#000000">: SystemXBar</text>
</a>
</g>
</g>
<g id="clust25" class="cluster">
<title>cluster_board_cache_hierarchy_membus_badaddr_responder</title>
<g id="a_clust25"><a xlink:title="clk_domain=board.clk_domain&#10;eventq_index=0&#10;fake_mem=false&#10;pio_addr=0&#10;pio_latency=100000&#10;pio_size=8&#10;power_model=&#10;power_state=board.cache_hierarchy.membus.badaddr_responder.power_state&#10;&#13;et_bad_addr=true&#10;&#13;et_data16=65535&#10;&#13;et_data32=4294967295&#10;&#13;et_data64=18446744073709551615&#10;&#13;et_data8=255&#10;system=board&#10;update_data=false&#10;warn_access=">
<path fill="#c7a793" stroke="#000000" d="M52,-40C52,-40 166,-40 166,-40 172,-40 178,-46 178,-52 178,-52 178,-118 178,-118 178,-124 172,-130 166,-130 166,-130 52,-130 52,-130 46,-130 40,-124 40,-118 40,-118 40,-52 40,-52 40,-46 46,-40 52,-40"/>
<text text-anchor="middle" x="109" y="-114.8" font-family="Arial" font-size="14.00" fill="#000000">badaddr_responder </text>
<text text-anchor="middle" x="109" y="-99.8" font-family="Arial" font-size="14.00" fill="#000000">: BadAddr</text>
</a>
</g>
</g>
<g id="clust27" class="cluster">
<title>cluster_board_cache_hierarchy_l2buses</title>
<g id="a_clust27"><a xlink:title="clk_domain=board.clk_domain&#10;eventq_index=0&#10;forward_latency=0&#10;frontend_latency=1&#10;header_latency=1&#10;max_outstanding_snoops=512&#10;max_routing_table_size=512&#10;point_of_coherency=false&#10;point_of_unification=true&#10;power_model=&#10;power_state=board.cache_hierarchy.l2buses.power_state&#10;&#13;esponse_latency=1&#10;snoop_filter=board.cache_hierarchy.l2buses.snoop_filter&#10;snoop_response_latency=1&#10;system=board&#10;use_default_range=false&#10;width=32">
<path fill="#6f798c" stroke="#000000" d="M453,-170C453,-170 689,-170 689,-170 695,-170 701,-176 701,-182 701,-182 701,-248 701,-248 701,-254 695,-260 689,-260 689,-260 453,-260 453,-260 447,-260 441,-254 441,-248 441,-248 441,-182 441,-182 441,-176 447,-170 453,-170"/>
<text text-anchor="middle" x="571" y="-244.8" font-family="Arial" font-size="14.00" fill="#000000">l2buses </text>
<text text-anchor="middle" x="571" y="-229.8" font-family="Arial" font-size="14.00" fill="#000000">: L2XBar</text>
</a>
</g>
</g>
<g id="clust30" class="cluster">
<title>cluster_board_cache_hierarchy_l2&#45;cache&#45;0</title>
<g id="a_clust30"><a xlink:title="addr_ranges=0:18446744073709551615&#10;assoc=16&#10;clk_domain=board.clk_domain&#10;clusivity=mostly_incl&#10;compressor=Null&#10;data_latency=10&#10;demand_mshr_reserve=1&#10;eventq_index=0&#10;is_read_only=false&#10;max_miss_count=0&#10;move_contractions=true&#10;mshrs=20&#10;partitioning_manager=Null&#10;power_model=&#10;power_state=board.cache_hierarchy.l2&#45;cache&#45;0.power_state&#10;prefetcher=board.cache_hierarchy.l2&#45;cache&#45;0.prefetcher&#10;&#13;eplace_expansions=true&#10;&#13;eplacement_policy=board.cache_hierarchy.l2&#45;cache&#45;0.replacement_policy&#10;&#13;esponse_latency=1&#10;sequential_access=false&#10;size=262144&#10;system=board&#10;tag_latency=10&#10;tags=board.cache_hierarchy.l2&#45;cache&#45;0.tags&#10;tgts_per_mshr=12&#10;warmup_percentage=0&#10;write_allocator=Null&#10;write_buffers=8&#10;writeback_clean=false">
<path fill="#9f9c95" stroke="#000000" d="M388,-40C388,-40 550,-40 550,-40 556,-40 562,-46 562,-52 562,-52 562,-118 562,-118 562,-124 556,-130 550,-130 550,-130 388,-130 388,-130 382,-130 376,-124 376,-118 376,-118 376,-52 376,-52 376,-46 382,-40 388,-40"/>
<text text-anchor="middle" x="469" y="-114.8" font-family="Arial" font-size="14.00" fill="#000000">l2&#45;cache&#45;0 </text>
<text text-anchor="middle" x="469" y="-99.8" font-family="Arial" font-size="14.00" fill="#000000">: L2Cache</text>
</a>
</g>
</g>
<g id="clust40" class="cluster">
<title>cluster_board_cache_hierarchy_l1i&#45;cache&#45;0</title>
<g id="a_clust40"><a xlink:title="addr_ranges=0:18446744073709551615&#10;assoc=8&#10;clk_domain=board.clk_domain&#10;clusivity=mostly_incl&#10;compressor=Null&#10;data_latency=1&#10;demand_mshr_reserve=1&#10;eventq_index=0&#10;is_read_only=false&#10;max_miss_count=0&#10;move_contractions=true&#10;mshrs=16&#10;partitioning_manager=Null&#10;power_model=&#10;power_state=board.cache_hierarchy.l1i&#45;cache&#45;0.power_state&#10;prefetcher=board.cache_hierarchy.l1i&#45;cache&#45;0.prefetcher&#10;&#13;eplace_expansions=true&#10;&#13;eplacement_policy=board.cache_hierarchy.l1i&#45;cache&#45;0.replacement_policy&#10;&#13;esponse_latency=1&#10;sequential_access=false&#10;size=16384&#10;system=board&#10;tag_latency=1&#10;tags=board.cache_hierarchy.l1i&#45;cache&#45;0.tags&#10;tgts_per_mshr=20&#10;warmup_percentage=0&#10;write_allocator=Null&#10;write_buffers=8&#10;writeback_clean=true">
<path fill="#9f9c95" stroke="#000000" d="M582,-40C582,-40 744,-40 744,-40 750,-40 756,-46 756,-52 756,-52 756,-118 756,-118 756,-124 750,-130 744,-130 744,-130 582,-130 582,-130 576,-130 570,-124 570,-118 570,-118 570,-52 570,-52 570,-46 576,-40 582,-40"/>
<text text-anchor="middle" x="663" y="-114.8" font-family="Arial" font-size="14.00" fill="#000000">l1i&#45;cache&#45;0 </text>
<text text-anchor="middle" x="663" y="-99.8" font-family="Arial" font-size="14.00" fill="#000000">: L1ICache</text>
</a>
</g>
</g>
<g id="clust50" class="cluster">
<title>cluster_board_cache_hierarchy_l1d&#45;cache&#45;0</title>
<g id="a_clust50"><a xlink:title="addr_ranges=0:18446744073709551615&#10;assoc=8&#10;clk_domain=board.clk_domain&#10;clusivity=mostly_incl&#10;compressor=Null&#10;data_latency=1&#10;demand_mshr_reserve=1&#10;eventq_index=0&#10;is_read_only=false&#10;max_miss_count=0&#10;move_contractions=true&#10;mshrs=16&#10;partitioning_manager=Null&#10;power_model=&#10;power_state=board.cache_hierarchy.l1d&#45;cache&#45;0.power_state&#10;prefetcher=board.cache_hierarchy.l1d&#45;cache&#45;0.prefetcher&#10;&#13;eplace_expansions=true&#10;&#13;eplacement_policy=board.cache_hierarchy.l1d&#45;cache&#45;0.replacement_policy&#10;&#13;esponse_latency=1&#10;sequential_access=false&#10;size=16384&#10;system=board&#10;tag_latency=1&#10;tags=board.cache_hierarchy.l1d&#45;cache&#45;0.tags&#10;tgts_per_mshr=20&#10;warmup_percentage=0&#10;write_allocator=Null&#10;write_buffers=8&#10;writeback_clean=false">
<path fill="#9f9c95" stroke="#000000" d="M776,-40C776,-40 938,-40 938,-40 944,-40 950,-46 950,-52 950,-52 950,-118 950,-118 950,-124 944,-130 938,-130 938,-130 776,-130 776,-130 770,-130 764,-124 764,-118 764,-118 764,-52 764,-52 764,-46 770,-40 776,-40"/>
<text text-anchor="middle" x="857" y="-114.8" font-family="Arial" font-size="14.00" fill="#000000">l1d&#45;cache&#45;0 </text>
<text text-anchor="middle" x="857" y="-99.8" font-family="Arial" font-size="14.00" fill="#000000">: L1DCache</text>
</a>
</g>
</g>
<!-- board_system_port -->
<g id="node1" class="node">
<title>board_system_port</title>
<path fill="#b6b8bc" stroke="#000000" d="M107.5,-374C107.5,-374 40.5,-374 40.5,-374 34.5,-374 28.5,-368 28.5,-362 28.5,-362 28.5,-350 28.5,-350 28.5,-344 34.5,-338 40.5,-338 40.5,-338 107.5,-338 107.5,-338 113.5,-338 119.5,-344 119.5,-350 119.5,-350 119.5,-362 119.5,-362 119.5,-368 113.5,-374 107.5,-374"/>
<text text-anchor="middle" x="74" y="-352.3" font-family="Arial" font-size="14.00" fill="#000000">system_port</text>
</g>
<!-- board_cache_hierarchy_membus_cpu_side_ports -->
<g id="node6" class="node">
<title>board_cache_hierarchy_membus_cpu_side_ports</title>
<path fill="#586070" stroke="#000000" d="M348,-214C348,-214 264,-214 264,-214 258,-214 252,-208 252,-202 252,-202 252,-190 252,-190 252,-184 258,-178 264,-178 264,-178 348,-178 348,-178 354,-178 360,-184 360,-190 360,-190 360,-202 360,-202 360,-208 354,-214 348,-214"/>
<text text-anchor="middle" x="306" y="-192.3" font-family="Arial" font-size="14.00" fill="#000000">cpu_side_ports</text>
</g>
<!-- board_system_port&#45;&gt;board_cache_hierarchy_membus_cpu_side_ports -->
<g id="edge1" class="edge">
<title>board_system_port&#45;&gt;board_cache_hierarchy_membus_cpu_side_ports</title>
<path fill="none" stroke="black" d="M92.62,-337.86C103.32,-329.09 117.49,-319.19 132,-314 155.28,-305.67 222.04,-319.12 243,-306 272.6,-287.47 289.8,-249.6 298.54,-223.76"/>
<polygon fill="black" stroke="black" points="301.89,-224.77 301.58,-214.18 295.22,-222.65 301.89,-224.77"/>
</g>
<!-- board_processor_cores_port_end_req_ports -->
<g id="node2" class="node">
<title>board_processor_cores_port_end_req_ports</title>
<path fill="#6a6863" stroke="#000000" d="M512,-374C512,-374 462,-374 462,-374 456,-374 450,-368 450,-362 450,-362 450,-350 450,-350 450,-344 456,-338 462,-338 462,-338 512,-338 512,-338 518,-338 524,-344 524,-350 524,-350 524,-362 524,-362 524,-368 518,-374 512,-374"/>
<text text-anchor="middle" x="487" y="-352.3" font-family="Arial" font-size="14.00" fill="#000000">req_ports</text>
</g>
<!-- board_processor_cores_port_end_req_ports&#45;&gt;board_cache_hierarchy_membus_cpu_side_ports -->
<g id="edge3" class="edge">
<title>board_processor_cores_port_end_req_ports&#45;&gt;board_cache_hierarchy_membus_cpu_side_ports</title>
<path fill="none" stroke="black" d="M462.88,-337.79C427.75,-309.65 363.45,-253.71 328.98,-221.46"/>
<polygon fill="black" stroke="black" points="330.96,-218.52 321.29,-214.19 326.15,-223.6 330.96,-218.52"/>
</g>
<!-- board_processor_cores_port_end_req_ports&#45;&gt;board_cache_hierarchy_membus_cpu_side_ports -->
<g id="edge4" class="edge">
<title>board_processor_cores_port_end_req_ports&#45;&gt;board_cache_hierarchy_membus_cpu_side_ports</title>
<path fill="none" stroke="black" d="M471.69,-337.79C442.11,-309.42 377.4,-252.77 338.08,-220.65"/>
<polygon fill="black" stroke="black" points="340.07,-217.76 330.09,-214.19 335.66,-223.2 340.07,-217.76"/>
</g>
<!-- board_cache_hierarchy_l1i&#45;cache&#45;0_cpu_side -->
<g id="node14" class="node">
<title>board_cache_hierarchy_l1i&#45;cache&#45;0_cpu_side</title>
<path fill="#7f7c77" stroke="#000000" d="M735.5,-84C735.5,-84 688.5,-84 688.5,-84 682.5,-84 676.5,-78 676.5,-72 676.5,-72 676.5,-60 676.5,-60 676.5,-54 682.5,-48 688.5,-48 688.5,-48 735.5,-48 735.5,-48 741.5,-48 747.5,-54 747.5,-60 747.5,-60 747.5,-72 747.5,-72 747.5,-78 741.5,-84 735.5,-84"/>
<text text-anchor="middle" x="712" y="-62.3" font-family="Arial" font-size="14.00" fill="#000000">cpu_side</text>
</g>
<!-- board_processor_cores_port_end_req_ports&#45;&gt;board_cache_hierarchy_l1i&#45;cache&#45;0_cpu_side -->
<g id="edge2" class="edge">
<title>board_processor_cores_port_end_req_ports&#45;&gt;board_cache_hierarchy_l1i&#45;cache&#45;0_cpu_side</title>
<path fill="none" stroke="black" d="M510.39,-337.98C523.9,-329.13 541.61,-319.12 559,-314 574.59,-309.41 693.66,-317.63 705,-306 760.59,-248.97 736.79,-143.19 721.37,-93.76"/>
<polygon fill="black" stroke="black" points="724.66,-92.53 718.24,-84.1 718,-94.69 724.66,-92.53"/>
</g>
<!-- board_processor_cores_generator_port -->
<g id="node3" class="node">
<title>board_processor_cores_generator_port</title>
<path fill="#6a6863" stroke="#000000" d="M647,-374C647,-374 617,-374 617,-374 611,-374 605,-368 605,-362 605,-362 605,-350 605,-350 605,-344 611,-338 617,-338 617,-338 647,-338 647,-338 653,-338 659,-344 659,-350 659,-350 659,-362 659,-362 659,-368 653,-374 647,-374"/>
<text text-anchor="middle" x="632" y="-352.3" font-family="Arial" font-size="14.00" fill="#000000">port</text>
</g>
<!-- board_cache_hierarchy_l1d&#45;cache&#45;0_cpu_side -->
<g id="node16" class="node">
<title>board_cache_hierarchy_l1d&#45;cache&#45;0_cpu_side</title>
<path fill="#7f7c77" stroke="#000000" d="M929.5,-84C929.5,-84 882.5,-84 882.5,-84 876.5,-84 870.5,-78 870.5,-72 870.5,-72 870.5,-60 870.5,-60 870.5,-54 876.5,-48 882.5,-48 882.5,-48 929.5,-48 929.5,-48 935.5,-48 941.5,-54 941.5,-60 941.5,-60 941.5,-72 941.5,-72 941.5,-78 935.5,-84 929.5,-84"/>
<text text-anchor="middle" x="906" y="-62.3" font-family="Arial" font-size="14.00" fill="#000000">cpu_side</text>
</g>
<!-- board_processor_cores_generator_port&#45;&gt;board_cache_hierarchy_l1d&#45;cache&#45;0_cpu_side -->
<g id="edge5" class="edge">
<title>board_processor_cores_generator_port&#45;&gt;board_cache_hierarchy_l1d&#45;cache&#45;0_cpu_side</title>
<path fill="none" stroke="black" d="M659.31,-344.76C679.41,-336.35 706.67,-323.06 727,-306 802.79,-242.4 865.06,-140.8 891.85,-93.2"/>
<polygon fill="black" stroke="black" points="895.07,-94.6 896.87,-84.16 888.95,-91.2 895.07,-94.6"/>
</g>
<!-- board_memory_mem_ctrl0_port -->
<g id="node4" class="node">
<title>board_memory_mem_ctrl0_port</title>
<path fill="#7f7c77" stroke="#000000" d="M279,-374C279,-374 249,-374 249,-374 243,-374 237,-368 237,-362 237,-362 237,-350 237,-350 237,-344 243,-338 249,-338 249,-338 279,-338 279,-338 285,-338 291,-344 291,-350 291,-350 291,-362 291,-362 291,-368 285,-374 279,-374"/>
<text text-anchor="middle" x="264" y="-352.3" font-family="Arial" font-size="14.00" fill="#000000">port</text>
</g>
<!-- board_cache_hierarchy_membus_mem_side_ports -->
<g id="node7" class="node">
<title>board_cache_hierarchy_membus_mem_side_ports</title>
<path fill="#586070" stroke="#000000" d="M222,-214C222,-214 128,-214 128,-214 122,-214 116,-208 116,-202 116,-202 116,-190 116,-190 116,-184 122,-178 128,-178 128,-178 222,-178 222,-178 228,-178 234,-184 234,-190 234,-190 234,-202 234,-202 234,-208 228,-214 222,-214"/>
<text text-anchor="middle" x="175" y="-192.3" font-family="Arial" font-size="14.00" fill="#000000">mem_side_ports</text>
</g>
<!-- board_memory_mem_ctrl0_port&#45;&gt;board_cache_hierarchy_membus_mem_side_ports -->
<g id="edge6" class="edge">
<title>board_memory_mem_ctrl0_port&#45;&gt;board_cache_hierarchy_membus_mem_side_ports</title>
<path fill="none" stroke="black" d="M249.28,-328.86C230.97,-296.37 200.26,-241.84 184.68,-214.19"/>
<polygon fill="black" stroke="black" points="246.35,-330.8 254.31,-337.79 252.45,-327.36 246.35,-330.8"/>
</g>
<!-- board_memory_mem_ctrl1_port -->
<g id="node5" class="node">
<title>board_memory_mem_ctrl1_port</title>
<path fill="#7f7c77" stroke="#000000" d="M190,-374C190,-374 160,-374 160,-374 154,-374 148,-368 148,-362 148,-362 148,-350 148,-350 148,-344 154,-338 160,-338 160,-338 190,-338 190,-338 196,-338 202,-344 202,-350 202,-350 202,-362 202,-362 202,-368 196,-374 190,-374"/>
<text text-anchor="middle" x="175" y="-352.3" font-family="Arial" font-size="14.00" fill="#000000">port</text>
</g>
<!-- board_memory_mem_ctrl1_port&#45;&gt;board_cache_hierarchy_membus_mem_side_ports -->
<g id="edge7" class="edge">
<title>board_memory_mem_ctrl1_port&#45;&gt;board_cache_hierarchy_membus_mem_side_ports</title>
<path fill="none" stroke="black" d="M175,-327.59C175,-294.97 175,-241.48 175,-214.19"/>
<polygon fill="black" stroke="black" points="171.5,-327.79 175,-337.79 178.5,-327.79 171.5,-327.79"/>
</g>
<!-- board_cache_hierarchy_l2&#45;cache&#45;0_mem_side -->
<g id="node13" class="node">
<title>board_cache_hierarchy_l2&#45;cache&#45;0_mem_side</title>
<path fill="#7f7c77" stroke="#000000" d="M452,-84C452,-84 396,-84 396,-84 390,-84 384,-78 384,-72 384,-72 384,-60 384,-60 384,-54 390,-48 396,-48 396,-48 452,-48 452,-48 458,-48 464,-54 464,-60 464,-60 464,-72 464,-72 464,-78 458,-84 452,-84"/>
<text text-anchor="middle" x="424" y="-62.3" font-family="Arial" font-size="14.00" fill="#000000">mem_side</text>
</g>
<!-- board_cache_hierarchy_membus_cpu_side_ports&#45;&gt;board_cache_hierarchy_l2&#45;cache&#45;0_mem_side -->
<g id="edge8" class="edge">
<title>board_cache_hierarchy_membus_cpu_side_ports&#45;&gt;board_cache_hierarchy_l2&#45;cache&#45;0_mem_side</title>
<path fill="none" stroke="black" d="M328.7,-170.37C351.95,-145.16 387.49,-106.6 407.96,-84.4"/>
<polygon fill="black" stroke="black" points="326.12,-168.01 321.91,-177.74 331.27,-172.76 326.12,-168.01"/>
</g>
<!-- board_cache_hierarchy_membus_default -->
<g id="node8" class="node">
<title>board_cache_hierarchy_membus_default</title>
<path fill="#586070" stroke="#000000" d="M85.5,-214C85.5,-214 52.5,-214 52.5,-214 46.5,-214 40.5,-208 40.5,-202 40.5,-202 40.5,-190 40.5,-190 40.5,-184 46.5,-178 52.5,-178 52.5,-178 85.5,-178 85.5,-178 91.5,-178 97.5,-184 97.5,-190 97.5,-190 97.5,-202 97.5,-202 97.5,-208 91.5,-214 85.5,-214"/>
<text text-anchor="middle" x="69" y="-192.3" font-family="Arial" font-size="14.00" fill="#000000">default</text>
</g>
<!-- board_cache_hierarchy_membus_badaddr_responder_pio -->
<g id="node9" class="node">
<title>board_cache_hierarchy_membus_badaddr_responder_pio</title>
<path fill="#9f8575" stroke="#000000" d="M90,-84C90,-84 60,-84 60,-84 54,-84 48,-78 48,-72 48,-72 48,-60 48,-60 48,-54 54,-48 60,-48 60,-48 90,-48 90,-48 96,-48 102,-54 102,-60 102,-60 102,-72 102,-72 102,-78 96,-84 90,-84"/>
<text text-anchor="middle" x="75" y="-62.3" font-family="Arial" font-size="14.00" fill="#000000">pio</text>
</g>
<!-- board_cache_hierarchy_membus_default&#45;&gt;board_cache_hierarchy_membus_badaddr_responder_pio -->
<g id="edge9" class="edge">
<title>board_cache_hierarchy_membus_default&#45;&gt;board_cache_hierarchy_membus_badaddr_responder_pio</title>
<path fill="none" stroke="black" d="M69.81,-177.74C70.81,-156.36 72.53,-119.69 73.71,-94.44"/>
<polygon fill="black" stroke="black" points="77.21,-94.55 74.18,-84.4 70.22,-94.22 77.21,-94.55"/>
</g>
<!-- board_cache_hierarchy_l2buses_cpu_side_ports -->
<g id="node10" class="node">
<title>board_cache_hierarchy_l2buses_cpu_side_ports</title>
<path fill="#586070" stroke="#000000" d="M681,-214C681,-214 597,-214 597,-214 591,-214 585,-208 585,-202 585,-202 585,-190 585,-190 585,-184 591,-178 597,-178 597,-178 681,-178 681,-178 687,-178 693,-184 693,-190 693,-190 693,-202 693,-202 693,-208 687,-214 681,-214"/>
<text text-anchor="middle" x="639" y="-192.3" font-family="Arial" font-size="14.00" fill="#000000">cpu_side_ports</text>
</g>
<!-- board_cache_hierarchy_l1i&#45;cache&#45;0_mem_side -->
<g id="node15" class="node">
<title>board_cache_hierarchy_l1i&#45;cache&#45;0_mem_side</title>
<path fill="#7f7c77" stroke="#000000" d="M646,-84C646,-84 590,-84 590,-84 584,-84 578,-78 578,-72 578,-72 578,-60 578,-60 578,-54 584,-48 590,-48 590,-48 646,-48 646,-48 652,-48 658,-54 658,-60 658,-60 658,-72 658,-72 658,-78 652,-84 646,-84"/>
<text text-anchor="middle" x="618" y="-62.3" font-family="Arial" font-size="14.00" fill="#000000">mem_side</text>
</g>
<!-- board_cache_hierarchy_l2buses_cpu_side_ports&#45;&gt;board_cache_hierarchy_l1i&#45;cache&#45;0_mem_side -->
<g id="edge10" class="edge">
<title>board_cache_hierarchy_l2buses_cpu_side_ports&#45;&gt;board_cache_hierarchy_l1i&#45;cache&#45;0_mem_side</title>
<path fill="none" stroke="black" d="M634.52,-167.72C630.39,-142.52 624.37,-105.84 620.85,-84.4"/>
<polygon fill="black" stroke="black" points="631.09,-168.44 636.17,-177.74 638,-167.3 631.09,-168.44"/>
</g>
<!-- board_cache_hierarchy_l1d&#45;cache&#45;0_mem_side -->
<g id="node17" class="node">
<title>board_cache_hierarchy_l1d&#45;cache&#45;0_mem_side</title>
<path fill="#7f7c77" stroke="#000000" d="M840,-84C840,-84 784,-84 784,-84 778,-84 772,-78 772,-72 772,-72 772,-60 772,-60 772,-54 778,-48 784,-48 784,-48 840,-48 840,-48 846,-48 852,-54 852,-60 852,-60 852,-72 852,-72 852,-78 846,-84 840,-84"/>
<text text-anchor="middle" x="812" y="-62.3" font-family="Arial" font-size="14.00" fill="#000000">mem_side</text>
</g>
<!-- board_cache_hierarchy_l2buses_cpu_side_ports&#45;&gt;board_cache_hierarchy_l1d&#45;cache&#45;0_mem_side -->
<g id="edge11" class="edge">
<title>board_cache_hierarchy_l2buses_cpu_side_ports&#45;&gt;board_cache_hierarchy_l1d&#45;cache&#45;0_mem_side</title>
<path fill="none" stroke="black" d="M689.04,-173.56C711.96,-162.42 738.69,-147.48 760,-130 776.23,-116.69 791.07,-97.71 800.71,-84.07"/>
<polygon fill="black" stroke="black" points="687.35,-170.49 679.81,-177.94 690.35,-176.81 687.35,-170.49"/>
</g>
<!-- board_cache_hierarchy_l2buses_mem_side_ports -->
<g id="node11" class="node">
<title>board_cache_hierarchy_l2buses_mem_side_ports</title>
<path fill="#586070" stroke="#000000" d="M555,-214C555,-214 461,-214 461,-214 455,-214 449,-208 449,-202 449,-202 449,-190 449,-190 449,-184 455,-178 461,-178 461,-178 555,-178 555,-178 561,-178 567,-184 567,-190 567,-190 567,-202 567,-202 567,-208 561,-214 555,-214"/>
<text text-anchor="middle" x="508" y="-192.3" font-family="Arial" font-size="14.00" fill="#000000">mem_side_ports</text>
</g>
<!-- board_cache_hierarchy_l2&#45;cache&#45;0_cpu_side -->
<g id="node12" class="node">
<title>board_cache_hierarchy_l2&#45;cache&#45;0_cpu_side</title>
<path fill="#7f7c77" stroke="#000000" d="M541.5,-84C541.5,-84 494.5,-84 494.5,-84 488.5,-84 482.5,-78 482.5,-72 482.5,-72 482.5,-60 482.5,-60 482.5,-54 488.5,-48 494.5,-48 494.5,-48 541.5,-48 541.5,-48 547.5,-48 553.5,-54 553.5,-60 553.5,-60 553.5,-72 553.5,-72 553.5,-78 547.5,-84 541.5,-84"/>
<text text-anchor="middle" x="518" y="-62.3" font-family="Arial" font-size="14.00" fill="#000000">cpu_side</text>
</g>
<!-- board_cache_hierarchy_l2buses_mem_side_ports&#45;&gt;board_cache_hierarchy_l2&#45;cache&#45;0_cpu_side -->
<g id="edge12" class="edge">
<title>board_cache_hierarchy_l2buses_mem_side_ports&#45;&gt;board_cache_hierarchy_l2&#45;cache&#45;0_cpu_side</title>
<path fill="none" stroke="black" d="M509.35,-177.74C511.02,-156.36 513.88,-119.69 515.86,-94.44"/>
<polygon fill="black" stroke="black" points="519.35,-94.64 516.64,-84.4 512.37,-94.09 519.35,-94.64"/>
</g>
</g>
</svg>
